M48
INCH
T01C0.0400
T02C0.0500
T03C0.0300
%
T01
X-005499Y+009930
X-004499Y+009930
X-005499Y+006894
X-004499Y+006894
X-014141Y+012955
X-013141Y+012955
X-009864Y+012955
X-008864Y+012955
X-014141Y+009930
X-013141Y+009930
X-009864Y+009930
X-008864Y+009930
X-014141Y+006894
X-013141Y+006894
X-005499Y+012955
X-004499Y+012955
X-010872Y+006323
X-009872Y+006323
X-008872Y+006323
X-007872Y+006323
X-000080Y-004839
X-013390Y-007900
X-012390Y-007900
X+003255Y-001744
X+003255Y-000744
X+005545Y-001744
X+005545Y-000744
X-006710Y-000760
X-006710Y-001760
X-009020Y-000760
X-009020Y-001760
X+003605Y-005129
X+003605Y-006129
X-006760Y+002604
X-006760Y+001604
X-014133Y+002862
X-013133Y+002862
X+006050Y-007584
X+007050Y-007584
X+008050Y-007584
X+009050Y-007584
X+010050Y-007584
X+011050Y-007584
X+012050Y-007584
X+013050Y-007584
X+014050Y-007584
X+008081Y-009810
X+009081Y-009810
X+010081Y-009810
X+011081Y-009810
X+012081Y-009810
X-013030Y-013595
X-013030Y-012595
X-010130Y-013595
X-010130Y-012595
X-007210Y-013595
X-007210Y-012595
X-004280Y-013595
X-004280Y-012595
X-001400Y-013595
X-001400Y-012595
X+001180Y-013602
X+001180Y-012602
X+010511Y-002834
X+012334Y-003397
X+013334Y-003397
T02
X-002142Y+013326
X-002142Y+006576
X+013407Y+013326
X+013407Y+006576
T03
X-000080Y-003839
X-000080Y-002839
X-000080Y-001839
X-000080Y-000839
X-000080Y+000160
X-000080Y+001160
X-000080Y+002160
X-003080Y+002160
X-003080Y+001160
X-003080Y+000160
X-003080Y-000839
X-003080Y-001839
X-003080Y-002839
X-003080Y-003839
X-003080Y-004839
X+007718Y-003269
X+007718Y+000730
X-003610Y-006539
X+000390Y-006539
X-003620Y-008509
X+000380Y-008509
X-011881Y+000307
X-011881Y-003692
X-013350Y+000316
X-013350Y-003683
X-008690Y-006539
X-004690Y-006539
X-007992Y+002633
X-011992Y+002633
X+012871Y-000771
X+008871Y-000771
X+004291Y+001522
X+004291Y+002322
X+004291Y+003122
X-007086Y-005170
X-007086Y-004370
X-007086Y-003570
X-007780Y-008430
X-005780Y-008430
X-000720Y+004110
X+001280Y+004110
X+013937Y+001496
X+009937Y+001496
X+011011Y+003976
X+011811Y+003976
X+012611Y+003976
M30
